<svg id="Layer_1" data-name="Layer 1" xmlns="http://www.w3.org/2000/svg" xmlns:xlink="http://www.w3.org/1999/xlink" viewBox="0 0 1121.1 841.89">
  <defs>
    <style>
      .cls-1 {
        fill: #60afdd;
      }

      .cls-2 {
        fill: #529cc0;
      }

      .cls-3 {
        fill: #fff;
      }
    </style>
  </defs>
  <rect class="cls-1" x="920.71" y="325.53" width="200.39" height="200.03"/>
  <image width="592" height="708" transform="scale(1.19)" xlink:href="../../../../../../../OneDrive/MCT/Sem3/Interaction%20Design/week5/Schermafbeelding%202021-10-21%20134841.png"/>
  <ellipse id="Shadow" class="cls-2" cx="1020.71" cy="520.4" rx="27.36" ry="3.25"/>
  <g id="Robot">
    <g id="Top">
      <g id="Antenna_R" data-name="Antenna R">
        <circle class="cls-3" cx="1045.58" cy="336.94" r="6.93"/>
        <rect class="cls-3" x="1043.68" y="342.88" width="3.8" height="7.51"/>
      </g>
      <path id="Signal" class="cls-3" d="M86.58,12a5,5,0,0,1,1.24,0c1.2,0,1.3.14,1.57,0s.28-.26.89-1.61L91,8.71c.13-.28,0,0,.54-1.17.61-1.34.74-1.64,1.11-1.88a1.83,1.83,0,0,1,.83-.29,1.9,1.9,0,0,1,1.11.25,2.5,2.5,0,0,1,.93,1.28c.52,1.08.78,1.62.89,1.89.6,1.51.69,1.24,2,3.92.33.7.7,1.38,1,2.09.5,1.12.65,1.61.92,1.61.1,0,.26-.06,1.12-1.82.34-.7.38-.81.58-1.15a3.54,3.54,0,0,1,1-1.36c.5-.34.79-.13,2.56-.15,1.35,0,1.51-.15,2,0s1.47.89,1.42,1.71-1.09,1.35-1.18,1.39a3.64,3.64,0,0,1-1.48.2c-.79,0-1.16-.12-1.53.15a1.35,1.35,0,0,0-.41.58c-.35.76-.78,1.48-1.11,2.24-.65,1.48-.46.92-.93,2a3,3,0,0,1-1.05,1.57,1.66,1.66,0,0,1-.75.27,2.14,2.14,0,0,1-1.69-.89,4.31,4.31,0,0,1-.62-1.3c-.25-.61-.54-1.21-.8-1.81-.57-1.28-.64-1.24-1.39-2.83-.31-.66-.75-1.63-1.44-3-.56-1.08-.77-1.41-1-1.4s-.45.41-1.16,2c-.8,1.85-.92,2.09-1.25,2.27s-.19,0-2.23.06l-1.55,0a3.18,3.18,0,0,1-1,0,1.77,1.77,0,0,1-1.2-1.52A1.94,1.94,0,0,1,86.58,12Z" transform="translate(920.71 325.54)"/>
      <g id="Antenna_L" data-name="Antenna L">
        <circle class="cls-3" cx="992.23" cy="336.94" r="6.93"/>
        <rect class="cls-3" x="990.33" y="342.88" width="3.8" height="7.51"/>
      </g>
    </g>
    <g id="Head">
      <g id="Face">
        <rect class="cls-3" x="111.79" y="28.7" width="8.66" height="28.35" rx="0.01" transform="translate(940.06 291.22) rotate(18.31)"/>
        <rect class="cls-3" x="104.51" y="31.26" width="3.47" height="25.13" rx="0.01" transform="translate(939.86 294.38) rotate(18.31)"/>
        <path class="cls-3" d="M53.89,34.43V73.09a8,8,0,0,0,8,8h72.45a8,8,0,0,0,8-8V34.35a8,8,0,0,0-8-8H62A8.11,8.11,0,0,0,53.89,34.43ZM84.68,68.25H81a0,0,0,0,1,0,0h0V64.56H84.7v3.66h0S84.69,68.25,84.68,68.25Zm6.71,0s-.83,0-1.84,0-1.84,0-1.84,0V64.56h3.68s0,.83,0,1.84S91.39,68.24,91.39,68.24Zm6.87,0s-.83,0-1.84,0-1.84,0-1.84,0V64.56h1.84c1,0,1.84,0,1.84,0s0,.83,0,1.84S98.26,68.24,98.26,68.24Zm6.66,0h-1.84c-1,0-1.84,0-1.84,0s0-.83,0-1.84V64.56h1.85c1,0,1.84,0,1.84,0v3.68Zm6.74,0s-.83,0-1.84,0H108V64.56h1.84c1,0,1.84,0,1.84,0s0,.83,0,1.84S111.66,68.24,111.66,68.24Zm20.28-14.52H64.31V33.36H132V53.71Z" transform="translate(920.71 325.54)"/>
      </g>
      <path id="Ear_R" data-name="Ear R" class="cls-3" d="M145.19,46V59.77h0a6.89,6.89,0,1,0,0-13.78Z" transform="translate(920.71 325.54)"/>
      <path id="Ear_L" data-name="Ear L" class="cls-3" d="M51.07,59.77V46h0a6.89,6.89,0,1,0,0,13.78Z" transform="translate(920.71 325.54)"/>
    </g>
    <path id="Arm_R" data-name="Arm R" class="cls-3" d="M122.93,93.47c.06-.07.43,0,1.15.19.45.11.55.16.9.22s.47,0,.92.1.58.11,1.16.23c0,0,.42.08,1.18.18a29.43,29.43,0,0,0,5.37,0c5.13-.46,7.69-.69,8.46-.84A63.08,63.08,0,0,0,149,91.72c1-.31,1.8-.59,2.36-.79s1-.38,1.74-.68c1.62-.69,2.42-1,2.64-1.49.33-.68-.17-1.13-.4-2.86a15.45,15.45,0,0,1,0-2.49c.19-3.65,3.31-7.82,5.88-8.72a3.17,3.17,0,0,1,2.15-.1,2.54,2.54,0,0,1,1.56,3.21c-.26.74-.86,1-1.44,1.47a8,8,0,0,0-3,5.82,4.74,4.74,0,0,0,4.47,5.18c2.37.18,5.43-1.47,6.72-2.17a2.16,2.16,0,0,1,1-.29,2.89,2.89,0,0,1,2.59,2c.33,1.82-2.76,3.91-4.94,4.78a13,13,0,0,1-8.43,0,5.93,5.93,0,0,1-2.27-1.08c-.19-.2-.47-.57-.84-.55s-.34.15-.8.43l-.82.43c-.67.36-2.26,1.17-2.93,1.49a40.46,40.46,0,0,1-5.92,2.19,58.12,58.12,0,0,1-6.81,1.4,41.94,41.94,0,0,1-5.57.73c-1,.05-2.12,0-4.37,0-.06,0-.95,0-2.13-.14a6.32,6.32,0,0,1-1.57-.26c-.89-.35-1.28-1.07-1.81-1.86C124.35,94.93,122.7,93.75,122.93,93.47Z" transform="translate(920.71 325.54)"/>
    <path id="Arm_L" data-name="Arm L" class="cls-3" d="M64.26,101.67c-1.18,1.22-1.43,1-5.2,3.47a43.84,43.84,0,0,0-4.39,3.24c-1.16,1-2,1.85-2.48,2.39a47.09,47.09,0,0,0-5,6.25c-2.13,3.08-1.13,2.19-2.47,4-.62.84-1.16,1.47-1,2.29s.79,1.21,1.48,1.91c1,1,1.38,2.1,2,4.09.38,1.12,2.19,6.51-.3,9.1a3.18,3.18,0,0,1-2.29,1.05,3.25,3.25,0,0,1-2.54-2.29c-.57-1.68.66-2.45.62-4.46a5.93,5.93,0,0,0-3.28-5.13c-2.57-1.07-6.08.54-7.25,2.72-.6,1.13-.52,2.3-1.73,3.28a2.67,2.67,0,0,1-4.39-1.11c-.5-1.36.39-2.71,1.85-5,1.24-1.89,2-3.11,3.66-4.08A15.68,15.68,0,0,1,36,121.91a6.08,6.08,0,0,1,1.11-.18c.75-.06.89.08,1.18-.07s.44-.56.8-1.42c.22-.51.51-1,.75-1.48A26.48,26.48,0,0,1,42,115.41c2.21-3.16,2.27-3.24,2.48-3.52.87-1.17,1.68-2.19,2.17-2.79a48.63,48.63,0,0,1,8.4-7.83,68.22,68.22,0,0,1,5.83-3.68c4.07-2.42,8.52-5.06,9-4.4.23.3-.53,1-2.91,4.52C65,100.68,65.07,100.83,64.26,101.67Z" transform="translate(920.71 325.54)"/>
    <g id="Rocket">
      <path id="Pipe" class="cls-3" d="M84,149.44c.19-.34.75-.29,2.7-.27,1.53,0,3.06-.09,4.58,0,2.73.08,1.65,0,7.84,0,3.82,0,4.38,0,5.86,0,.4,0,1.41,0,2.79,0h1.83c1.23,0,2.45,0,3.68,0,.17,0,.53,0,.66.2s0,.37-.27.88a5.44,5.44,0,0,1-1.22,1.56,4.39,4.39,0,0,1-1.44.86,7.77,7.77,0,0,1-2.35.17h-5.33c-.66,0-1.25,0-2,0-1,0-1.07,0-2,0H95.81l-1.57,0-1.7,0c-1,0-1.34,0-3.12-.08-2-.06-1.89,0-2.06,0C85.29,152.43,83.55,150.22,84,149.44Z" transform="translate(920.71 325.54)"/>
      <path id="Fire" class="cls-3" d="M85.43,172c.38.31,1.74-.56,4.23-2.17,1.28-.82,1.78-1.21,2.33-1s.81,1.06,1.26,2.54,1,2.7,1.47,4.07c.8,2.34.83,2,2.16,5.49,1.25,3.34,1.51,4.43,2,4.42s.64-1,1.54-3.49c1.26-3.51,1.42-3.11,2.61-6.55.47-1.37,1.06-2.7,1.51-4.07.51-1.55.68-2.28,1.27-2.47s1.15.38,2.91,1.51,3.15,2,3.59,1.7-.34-2.31-1.4-4.67a18.11,18.11,0,0,0-2.35-4.18,13.87,13.87,0,0,0-2.23-2.32,12.56,12.56,0,0,0-7.64-2.57,12.22,12.22,0,0,0-7.55,3,15.08,15.08,0,0,0-3.53,4.48,35.35,35.35,0,0,0-1.48,3.56C85.27,171.54,85.27,171.88,85.43,172Z" transform="translate(920.71 325.54)"/>
    </g>
    <path id="Body" class="cls-3" d="M103.19,87V83.39H93.07V87c-13.59,2.23-23.92,13.29-23.92,26.6v26a5.92,5.92,0,0,0,5.93,5.93h46.1a5.92,5.92,0,0,0,5.93-5.93v-26C127.11,100.24,116.78,89.18,103.19,87Zm-.66,40.52c0,.36,0,.59,0,1a5.92,5.92,0,0,0,0,.85l-1.59,1a4.85,4.85,0,0,1-4.86.1l-2-1.11a1.4,1.4,0,0,0-.07-.42c0-.13,0,.12-.05-1.37,0-.55-.06-.91-.11-1.62s0-1,.08-1,.39.11.91.47l.74.53.39.27c.13.08.31.2.53.32a5.21,5.21,0,0,0,.67.34,3.54,3.54,0,0,0,.71.21,4.15,4.15,0,0,0,.42,0,2.75,2.75,0,0,0,.89-.18,4.08,4.08,0,0,0,.67-.32,4.37,4.37,0,0,0,.5-.3,9.57,9.57,0,0,0,.81-.59c.29-.23.28-.23.46-.36.49-.38.75-.59.84-.51s.08.42.09,1.14S102.55,127.16,102.53,127.47Zm6.64-2.22-1.34.82c0-.08,0-.17,0-.28a7.42,7.42,0,0,1,0-1c0-.44,0-.74,0-1,0-1.12,0-2.23,0-4.23,0-2.55-.09-2.06,0-2.87.06-1.18,0-2.37,0-3.55a1.68,1.68,0,0,0-.3-1.21,1.27,1.27,0,0,0-.77-.4c-.43,0-.65.19-1.68.84-.42.27-.22.12-1.39.83-.75.45-.77.47-1,.62-.69.39-.75.35-1.33.68l-1.21.77-1,.59c-.67.39-.77.42-.89.43s-.43-.09-1.12-.49l-1.24-.71-1.3-.74-1.45-.8c-.73-.4-.82-.44-1-.56-.45-.27-1-.6-1-.65-.29-.19-.48-.32-.8-.5a3.75,3.75,0,0,0-.64-.3,1.21,1.21,0,0,0-.87-.06c-.28.17-.25.62-.27,1.39s-.1,1.24-.09,1.87c0,0,0,.74.09,4.17.06,2.43,0,4.49,0,4.49a9.89,9.89,0,0,0,0,2.79l-1-.53A4.82,4.82,0,0,1,85,121.54l-.27-9.77a4.84,4.84,0,0,1,2.33-4.26l8.24-5a4.81,4.81,0,0,1,4.85-.11l8.56,4.72a4.82,4.82,0,0,1,2.49,4.11l.27,9.77A4.84,4.84,0,0,1,109.17,125.25Z" transform="translate(920.71 325.54)"/>
  </g>
</svg>
